<svg version="1.1" id="Layer_1" xmlns="http://www.w3.org/2000/svg" xmlns:xlink="http://www.w3.org/1999/xlink" x="0px" y="0px"
	 width="100%" viewBox="0 0 2480 930" enable-background="new 0 0 2480 930" xml:space="preserve">
<path fill="#FFFFFF" opacity="1.000000" stroke="none" 
	d="
M1528.000000,931.000000 
	C1018.666748,931.000000 509.833466,931.000000 1.000137,931.000000 
	C1.000091,621.000122 1.000091,311.000183 1.000046,1.000220 
	C827.666504,1.000147 1654.333008,1.000147 2480.999512,1.000073 
	C2480.999756,310.999786 2480.999756,620.999573 2481.000000,930.999634 
	C2163.500000,931.000000 1846.000000,931.000000 1528.000000,931.000000 
M1464.351196,446.127808 
	C1428.060791,430.636322 1390.402344,428.168640 1352.235596,436.177246 
	C1285.597168,450.160156 1233.325195,502.335785 1233.993286,579.439819 
	C1234.357056,621.427124 1234.058105,663.420166 1234.058105,705.410583 
	C1234.058105,707.174805 1234.058105,708.938965 1234.058105,710.613159 
	C1256.760620,710.613159 1278.808838,710.613159 1301.001099,710.613159 
	C1301.001099,708.396973 1301.001099,706.568726 1301.001099,704.740479 
	C1301.001099,662.583435 1300.963135,620.426270 1301.046265,578.269348 
	C1301.057495,572.624207 1301.244019,566.913513 1302.094360,561.346924 
	C1306.590332,531.913025 1321.298828,509.619446 1349.346069,498.083618 
	C1377.130981,486.655731 1405.618408,486.804993 1433.682007,497.227814 
	C1452.912842,504.370148 1466.885010,517.848816 1475.527466,536.574829 
	C1481.194214,548.853088 1483.773926,561.882385 1483.811768,575.334656 
	C1483.932983,618.491089 1483.874756,661.648010 1483.885620,704.804749 
	C1483.886108,706.743774 1483.885742,708.682861 1483.885742,710.741211 
	C1506.367554,710.741211 1528.274658,710.741211 1550.445312,710.741211 
	C1550.532471,709.201782 1550.669678,707.904602 1550.670044,706.607422 
	C1550.679688,663.450623 1550.984009,620.290161 1550.476929,577.139282 
	C1550.335327,565.090088 1549.041870,552.757080 1546.129272,541.090454 
	C1534.928101,496.224487 1506.751953,465.419800 1464.351196,446.127808 
M2049.058350,599.500000 
	C2049.058350,636.587097 2049.058350,673.674194 2049.058350,710.754639 
	C2071.704346,710.754639 2093.637451,710.754639 2116.000488,710.754639 
	C2116.000488,708.732361 2116.000488,706.936035 2116.000488,705.139709 
	C2116.000488,661.141235 2115.925781,617.142639 2116.022949,573.144409 
	C2116.108643,534.303955 2139.483154,503.538361 2176.687012,493.725922 
	C2197.527588,488.229248 2218.601318,488.329620 2239.416260,494.022369 
	C2259.658447,499.558502 2275.787842,510.986420 2286.661377,529.223450 
	C2295.061035,543.311035 2298.715820,558.788940 2298.788574,575.014709 
	C2298.982910,618.345581 2298.874023,661.677795 2298.885742,705.009521 
	C2298.886230,706.926758 2298.885742,708.843994 2298.885742,710.653748 
	C2321.515137,710.653748 2343.415527,710.653748 2365.503174,710.653748 
	C2365.574951,709.509583 2365.670654,708.698975 2365.670654,707.888367 
	C2365.674316,663.889954 2366.200439,619.883423 2365.531250,575.895142 
	C2364.707031,521.712952 2341.215088,479.380554 2293.447021,453.566315 
	C2238.011719,423.608917 2180.612061,423.703522 2124.339844,451.994537 
	C2086.094238,471.222626 2062.221191,502.833038 2052.473877,544.766541 
	C2048.354492,562.488953 2049.073975,580.517517 2049.058350,599.500000 
M448.726349,583.864563 
	C448.937378,586.352966 449.007050,588.862793 449.380249,591.326599 
	C457.096100,642.269165 484.942627,678.229553 531.154053,700.109802 
	C566.222473,716.714172 603.234680,719.449646 640.975403,712.973999 
	C709.374451,701.237732 765.075317,648.532593 764.712891,569.340210 
	C764.519226,527.022217 764.678894,484.702576 764.679138,442.383667 
	C764.679199,440.758179 764.679199,439.132721 764.679199,437.360901 
	C742.144653,437.360901 720.114990,437.360901 697.885742,437.360901 
	C697.885742,439.546936 697.885742,441.371094 697.885742,443.195251 
	C697.885742,483.681458 697.926392,524.167725 697.845154,564.653809 
	C697.831848,571.303955 697.758789,578.015259 696.899597,584.591980 
	C692.969910,614.671875 678.281982,637.284851 650.019348,649.852722 
	C631.238159,658.204224 611.420654,659.160645 591.249817,657.160339 
	C545.429749,652.616150 515.012817,619.229004 515.003296,573.276489 
	C514.994324,529.791321 515.001343,486.306122 515.001343,442.820923 
	C515.001343,441.033295 515.001343,439.245697 515.001343,437.307098 
	C492.497375,437.307098 470.453705,437.307098 448.058258,437.307098 
	C448.058258,438.915314 448.058228,440.217590 448.058228,441.519867 
	C448.058319,484.671844 448.043579,527.823792 448.083344,570.975769 
	C448.087006,574.966492 448.437500,578.956909 448.726349,583.864563 
M1764.809814,631.102539 
	C1764.809814,656.336548 1764.809814,681.570496 1764.809814,706.653198 
	C1787.394897,706.653198 1809.139893,706.653198 1831.196777,706.653198 
	C1831.196777,680.678833 1831.196777,655.050598 1831.196777,629.286743 
	C1833.063354,628.829407 1834.654297,628.389709 1836.266724,628.051758 
	C1902.565552,614.154419 1952.029541,563.118774 1954.358032,493.400421 
	C1954.967773,475.144501 1954.449951,456.850891 1954.449951,439.075256 
	C1950.210205,439.391937 1946.149048,439.927765 1942.084229,439.957184 
	C1927.419922,440.063324 1912.754517,439.998901 1898.089478,439.998901 
	C1894.806396,439.998901 1891.523315,439.998901 1887.886108,439.998901 
	C1887.886108,442.525970 1887.913452,444.492401 1887.881836,446.457947 
	C1887.592407,464.441406 1888.510254,482.546783 1886.722046,500.380554 
	C1883.760376,529.914246 1869.014893,552.261169 1841.543213,565.161377 
	C1823.196045,573.776794 1803.719604,575.081909 1783.895142,573.481018 
	C1766.988159,572.115662 1751.182129,567.252197 1737.415283,557.089111 
	C1715.374390,540.818054 1706.059448,518.000244 1705.101074,491.412964 
	C1704.549194,476.101257 1705.000854,460.753357 1705.000732,445.421753 
	C1705.000732,443.671997 1705.000732,441.922241 1705.000732,440.277466 
	C1682.327026,440.277466 1660.396729,440.277466 1638.556763,440.277466 
	C1638.556763,459.841858 1637.724243,479.176270 1638.861694,498.394043 
	C1639.570679,510.371918 1641.937134,522.626709 1645.835327,533.975464 
	C1662.210571,581.647766 1696.979614,610.059998 1744.023315,624.856445 
	C1750.783325,626.982727 1757.747070,628.461853 1764.809814,631.102539 
M184.848175,646.501709 
	C184.848175,666.577820 184.848175,686.653870 184.848175,706.697388 
	C207.303467,706.697388 229.043915,706.697388 251.243668,706.697388 
	C251.243668,680.814392 251.243668,655.231140 251.243668,629.439575 
	C268.129913,626.581604 283.966675,621.641052 298.758453,613.835327 
	C346.077972,588.864624 372.648651,549.949890 376.087738,496.269531 
	C377.236084,478.345245 376.528687,460.301910 376.648987,442.312836 
	C376.653198,441.682922 376.435730,441.051514 376.315735,440.388489 
	C354.102112,440.388489 332.074158,440.388489 309.886169,440.388489 
	C309.886169,453.436066 309.981689,466.095673 309.848389,478.752869 
	C309.774811,485.738129 309.794037,492.777374 308.952148,499.692505 
	C304.895996,533.008423 287.948059,556.609314 255.899139,568.243591 
	C238.143723,574.689087 219.705673,575.264954 201.177414,572.954224 
	C163.919662,568.307495 136.085480,545.330750 129.001617,507.520752 
	C127.752861,500.855591 127.207794,493.985352 127.088234,487.196625 
	C126.813484,471.596771 127.001183,455.988800 127.001183,440.345276 
	C104.421425,440.345276 82.378593,440.345276 60.058636,440.345276 
	C60.058636,452.830597 59.906921,464.974121 60.106354,477.111877 
	C60.267635,486.927551 60.029720,496.851562 61.386353,506.528778 
	C68.420845,556.707825 95.417068,592.787476 140.703613,614.774719 
	C154.471146,621.459045 169.519012,625.506287 184.848114,631.076599 
	C184.848114,634.891357 184.848114,640.197021 184.848175,646.501709 
M1094.500488,436.998291 
	C1088.237549,436.998291 1081.974731,436.998291 1075.320312,436.998291 
	C1075.320312,439.611420 1075.324219,441.581329 1075.319702,443.551239 
	C1075.214478,489.207855 1076.286743,534.907837 1074.607178,580.506470 
	C1073.396362,613.381287 1056.552002,637.807495 1025.415894,650.781982 
	C1006.468506,658.677490 986.570007,659.104553 966.449951,656.988098 
	C929.947815,653.148560 902.562988,628.877380 894.946472,593.120178 
	C893.472290,586.199402 892.913452,579.083679 891.934143,572.070312 
	C869.952026,572.070312 848.062927,572.070312 825.886902,572.070312 
	C825.886902,573.421936 825.858887,574.399414 825.890869,575.374939 
	C827.339417,619.495544 845.234680,655.465271 880.046936,682.575317 
	C906.274353,702.999817 936.491577,713.261475 969.570801,715.446838 
	C1003.640808,717.697571 1036.494751,713.101379 1066.749268,696.555542 
	C1114.658936,670.354370 1140.621704,629.834229 1141.816528,575.010681 
	C1142.796753,530.039795 1142.079834,485.031830 1142.097046,440.040283 
	C1142.097412,439.107208 1141.875977,438.174103 1141.727295,436.998291 
	C1126.117676,436.998291 1110.808960,436.998291 1094.500488,436.998291 
M1302.911987,283.401367 
	C1291.574951,300.499084 1283.756836,319.226776 1277.809692,338.737823 
	C1272.755737,355.318085 1268.144043,372.004333 1260.344604,387.620636 
	C1252.518311,403.290497 1243.284912,417.842621 1229.718994,429.236603 
	C1225.246704,432.992767 1220.666870,436.620880 1215.772217,440.603760 
	C1219.635376,443.950348 1222.896118,447.026642 1226.463989,449.691864 
	C1227.373901,450.371613 1229.673828,450.327057 1230.632812,449.637970 
	C1251.179932,434.874878 1266.012939,415.283844 1276.400269,392.547089 
	C1283.440796,377.136230 1289.776611,361.412231 1293.560669,344.613434 
	C1296.144531,333.143433 1301.430542,322.174255 1306.341919,311.359741 
	C1315.537720,291.111023 1328.933472,273.662476 1343.979492,257.416290 
	C1346.463745,254.733810 1348.626587,251.753586 1350.819946,249.055954 
	C1339.113770,249.055954 1327.831421,248.536514 1316.617065,249.187408 
	C1302.597412,250.001129 1288.600342,251.508041 1274.657471,253.231400 
	C1265.156616,254.405716 1265.774170,254.669281 1263.708862,245.741928 
	C1259.174805,226.142502 1254.128052,206.657913 1249.027344,187.195419 
	C1247.332886,180.729782 1244.834229,174.474899 1242.656738,167.984879 
	C1235.559937,170.497391 1229.122559,172.591934 1222.822998,175.041199 
	C1203.411133,182.588470 1184.251953,190.681808 1166.945923,202.516846 
	C1164.100708,204.462570 1162.080322,204.284866 1159.943848,201.200821 
	C1155.617432,194.955460 1150.669067,189.138626 1146.388062,182.864716 
	C1135.415283,166.784012 1124.606934,150.589859 1113.876831,134.345947 
	C1111.496338,130.742188 1109.709595,126.746109 1107.320923,122.321976 
	C1102.410645,131.158737 1098.612427,139.469498 1093.510254,146.882919 
	C1081.149048,164.843750 1068.138062,182.356354 1055.492065,200.123047 
	C1052.913452,203.745773 1050.448486,203.882935 1046.771729,201.584793 
	C1026.665771,189.017426 1005.036865,179.628006 982.796997,171.592560 
	C979.293823,170.326782 975.595764,169.600388 971.881897,168.595978 
	C961.418030,196.557358 953.760742,224.650238 949.757141,254.223984 
	C935.331238,252.484375 921.326477,250.117020 907.231018,249.284805 
	C892.860291,248.436310 878.400513,249.097122 863.733032,249.097122 
	C864.250244,249.883484 864.893433,251.159271 865.805603,252.199112 
	C871.162781,258.305969 876.709778,264.250244 881.956848,270.449066 
	C895.734619,286.726410 906.702332,304.745911 914.029358,324.788513 
	C917.187073,333.426117 918.614075,342.711853 921.947693,351.266571 
	C929.620483,370.956879 935.751099,391.325653 947.166626,409.436127 
	C956.890442,424.862732 968.408203,438.563843 983.459106,449.023285 
	C984.706665,449.890198 987.430481,450.254791 988.479248,449.492279 
	C992.127991,446.839417 995.341064,443.587402 997.891785,441.304382 
	C988.883545,432.354156 979.634583,424.069275 971.462158,414.831940 
	C959.359131,401.151611 951.819885,384.715942 945.953064,367.577576 
	C941.031799,353.201538 936.849915,338.572083 931.909424,324.203094 
	C925.401855,305.276794 915.620850,288.030304 903.918518,271.835510 
	C902.861816,270.373077 902.314148,268.542786 901.296448,266.388885 
	C903.234741,266.175354 904.222168,265.870148 905.152527,265.993805 
	C917.098755,267.582062 929.048279,269.153107 940.974365,270.883820 
	C959.582336,273.584137 977.198730,279.648102 994.549988,286.683136 
	C999.283936,288.602539 999.762573,291.074219 997.947571,295.534454 
	C992.754089,308.297058 989.323242,321.634644 988.233521,335.343872 
	C986.270691,360.037750 992.021118,383.056610 1005.146667,404.111267 
	C1008.606323,409.660889 1012.539246,414.915405 1016.853577,421.173950 
	C1019.905884,417.139069 1021.949829,413.711121 1024.697998,410.995972 
	C1027.842285,407.889587 1027.035889,405.534668 1024.886475,402.370056 
	C1010.528503,381.231079 1003.906006,358.173798 1006.706482,332.396606 
	C1008.447144,316.375336 1012.933716,301.295166 1019.610291,286.832855 
	C1030.693237,262.825745 1045.523193,241.117615 1061.273560,219.969101 
	C1075.581177,200.757874 1089.516113,181.269135 1103.589966,161.884232 
	C1106.488892,157.891373 1108.516846,157.837311 1111.428345,161.996918 
	C1113.227661,164.567505 1114.676636,167.388168 1116.530151,169.915115 
	C1132.362061,191.497910 1148.741455,212.698410 1164.001221,234.676926 
	C1184.154419,263.703369 1203.581299,293.403229 1207.348633,329.810181 
	C1208.532104,341.246918 1208.404297,353.203644 1206.413818,364.487915 
	C1203.880981,378.846222 1197.375854,392.076508 1188.708130,404.050323 
	C1187.936279,405.116547 1187.512451,407.419983 1188.130859,408.338165 
	C1190.945190,412.517487 1194.190308,416.406677 1197.663330,420.894989 
	C1199.893188,417.877808 1201.754639,415.410889 1203.562378,412.905212 
	C1217.667603,393.354187 1226.038818,371.677246 1226.788208,347.473450 
	C1227.343750,329.533997 1222.975830,312.376434 1216.803223,295.656982 
	C1214.974121,290.702911 1215.516235,288.316345 1220.182129,286.500031 
	C1228.149414,283.398529 1236.119873,280.054260 1244.386963,278.027435 
	C1259.915283,274.220459 1275.616089,271.069366 1291.327515,268.078522 
	C1298.041382,266.800476 1304.961792,266.608276 1312.654419,265.835663 
	C1311.490356,273.378693 1306.095337,277.382782 1302.911987,283.401367 
M1352.062012,550.577820 
	C1343.825317,560.006042 1338.908203,571.018616 1338.159180,583.433167 
	C1335.819092,622.224670 1370.089478,647.573730 1401.777100,642.211182 
	C1436.779541,636.287659 1457.914551,600.964050 1445.451782,568.245605 
	C1430.573608,529.185852 1382.597168,519.796204 1352.062012,550.577820 
M2197.614502,642.000427 
	C2203.881836,642.010315 2210.232910,642.688599 2216.401611,641.913269 
	C2241.735596,638.728821 2262.250977,615.590332 2262.986572,589.953613 
	C2264.068115,552.260254 2230.549316,527.347107 2198.484375,532.825256 
	C2167.002930,538.203857 2145.651123,569.615479 2153.691650,600.423462 
	C2159.576416,622.971436 2174.302734,636.513062 2197.614502,642.000427 
M1158.553345,335.117828 
	C1148.782837,312.472137 1127.573486,300.254333 1105.751587,301.187134 
	C1068.668823,302.772217 1048.391968,335.947113 1052.732788,364.393860 
	C1057.621094,396.429504 1088.961548,417.828247 1120.433105,410.288025 
	C1151.109985,402.938232 1171.964600,369.250488 1158.553345,335.117828 
M1585.837769,704.658752 
	C1584.135254,701.734375 1582.432861,698.809937 1580.243530,695.049438 
	C1580.243530,699.661865 1580.243530,703.198853 1580.243530,707.958191 
	C1582.631836,706.898438 1584.396118,706.115662 1585.837769,704.658752 
z"/>
<path fill="#8615B5" opacity="1.000000" stroke="none" 
	d="
M1464.695190,446.289124 
	C1506.751953,465.419800 1534.928101,496.224487 1546.129272,541.090454 
	C1549.041870,552.757080 1550.335327,565.090088 1550.476929,577.139282 
	C1550.984009,620.290161 1550.679688,663.450623 1550.670044,706.607422 
	C1550.669678,707.904602 1550.532471,709.201782 1550.445312,710.741211 
	C1528.274658,710.741211 1506.367554,710.741211 1483.885742,710.741211 
	C1483.885742,708.682861 1483.886108,706.743774 1483.885620,704.804749 
	C1483.874756,661.648010 1483.932983,618.491089 1483.811768,575.334656 
	C1483.773926,561.882385 1481.194214,548.853088 1475.527466,536.574829 
	C1466.885010,517.848816 1452.912842,504.370148 1433.682007,497.227814 
	C1405.618408,486.804993 1377.130981,486.655731 1349.346069,498.083618 
	C1321.298828,509.619446 1306.590332,531.913025 1302.094360,561.346924 
	C1301.244019,566.913513 1301.057495,572.624207 1301.046265,578.269348 
	C1300.963135,620.426270 1301.001099,662.583435 1301.001099,704.740479 
	C1301.001099,706.568726 1301.001099,708.396973 1301.001099,710.613159 
	C1278.808838,710.613159 1256.760620,710.613159 1234.058105,710.613159 
	C1234.058105,708.938965 1234.058105,707.174805 1234.058105,705.410583 
	C1234.058105,663.420166 1234.357056,621.427124 1233.993286,579.439819 
	C1233.325195,502.335785 1285.597168,450.160156 1352.235596,436.177246 
	C1390.402344,428.168640 1428.060791,430.636322 1464.695190,446.289124 
z"/>
<path fill="#8615B5" opacity="1.000000" stroke="none" 
	d="
M2049.058350,599.000000 
	C2049.073975,580.517517 2048.354492,562.488953 2052.473877,544.766541 
	C2062.221191,502.833038 2086.094238,471.222626 2124.339844,451.994537 
	C2180.612061,423.703522 2238.011719,423.608917 2293.447021,453.566315 
	C2341.215088,479.380554 2364.707031,521.712952 2365.531250,575.895142 
	C2366.200439,619.883423 2365.674316,663.889954 2365.670654,707.888367 
	C2365.670654,708.698975 2365.574951,709.509583 2365.503174,710.653748 
	C2343.415527,710.653748 2321.515137,710.653748 2298.885742,710.653748 
	C2298.885742,708.843994 2298.886230,706.926758 2298.885742,705.009521 
	C2298.874023,661.677795 2298.982910,618.345581 2298.788574,575.014709 
	C2298.715820,558.788940 2295.061035,543.311035 2286.661377,529.223450 
	C2275.787842,510.986420 2259.658447,499.558502 2239.416260,494.022369 
	C2218.601318,488.329620 2197.527588,488.229248 2176.687012,493.725922 
	C2139.483154,503.538361 2116.108643,534.303955 2116.022949,573.144409 
	C2115.925781,617.142639 2116.000488,661.141235 2116.000488,705.139709 
	C2116.000488,706.936035 2116.000488,708.732361 2116.000488,710.754639 
	C2093.637451,710.754639 2071.704346,710.754639 2049.058350,710.754639 
	C2049.058350,673.674194 2049.058350,636.587097 2049.058350,599.000000 
z"/>
<path fill="#8615B5" opacity="1.000000" stroke="none" 
	d="
M448.676636,583.406006 
	C448.437500,578.956909 448.087006,574.966492 448.083344,570.975769 
	C448.043579,527.823792 448.058319,484.671844 448.058228,441.519867 
	C448.058228,440.217590 448.058258,438.915314 448.058258,437.307098 
	C470.453705,437.307098 492.497375,437.307098 515.001343,437.307098 
	C515.001343,439.245697 515.001343,441.033295 515.001343,442.820923 
	C515.001343,486.306122 514.994324,529.791321 515.003296,573.276489 
	C515.012817,619.229004 545.429749,652.616150 591.249817,657.160339 
	C611.420654,659.160645 631.238159,658.204224 650.019348,649.852722 
	C678.281982,637.284851 692.969910,614.671875 696.899597,584.591980 
	C697.758789,578.015259 697.831848,571.303955 697.845154,564.653809 
	C697.926392,524.167725 697.885742,483.681458 697.885742,443.195251 
	C697.885742,441.371094 697.885742,439.546936 697.885742,437.360901 
	C720.114990,437.360901 742.144653,437.360901 764.679199,437.360901 
	C764.679199,439.132721 764.679199,440.758179 764.679138,442.383667 
	C764.678894,484.702576 764.519226,527.022217 764.712891,569.340210 
	C765.075317,648.532593 709.374451,701.237732 640.975403,712.973999 
	C603.234680,719.449646 566.222473,716.714172 531.154053,700.109802 
	C484.942627,678.229553 457.096100,642.269165 449.380249,591.326599 
	C449.007050,588.862793 448.937378,586.352966 448.676636,583.406006 
z"/>
<path fill="#8615B5" opacity="1.000000" stroke="none" 
	d="
M1764.713135,630.671509 
	C1757.747070,628.461853 1750.783325,626.982727 1744.023315,624.856445 
	C1696.979614,610.059998 1662.210571,581.647766 1645.835327,533.975464 
	C1641.937134,522.626709 1639.570679,510.371918 1638.861694,498.394043 
	C1637.724243,479.176270 1638.556763,459.841858 1638.556763,440.277466 
	C1660.396729,440.277466 1682.327026,440.277466 1705.000732,440.277466 
	C1705.000732,441.922241 1705.000732,443.671997 1705.000732,445.421753 
	C1705.000854,460.753357 1704.549194,476.101257 1705.101074,491.412964 
	C1706.059448,518.000244 1715.374390,540.818054 1737.415283,557.089111 
	C1751.182129,567.252197 1766.988159,572.115662 1783.895142,573.481018 
	C1803.719604,575.081909 1823.196045,573.776794 1841.543213,565.161377 
	C1869.014893,552.261169 1883.760376,529.914246 1886.722046,500.380554 
	C1888.510254,482.546783 1887.592407,464.441406 1887.881836,446.457947 
	C1887.913452,444.492401 1887.886108,442.525970 1887.886108,439.998901 
	C1891.523315,439.998901 1894.806396,439.998901 1898.089478,439.998901 
	C1912.754517,439.998901 1927.419922,440.063324 1942.084229,439.957184 
	C1946.149048,439.927765 1950.210205,439.391937 1954.449951,439.075256 
	C1954.449951,456.850891 1954.967773,475.144501 1954.358032,493.400421 
	C1952.029541,563.118774 1902.565552,614.154419 1836.266724,628.051758 
	C1834.654297,628.389709 1833.063354,628.829407 1831.196777,629.286743 
	C1831.196777,655.050598 1831.196777,680.678833 1831.196777,706.653198 
	C1809.139893,706.653198 1787.394897,706.653198 1764.809814,706.653198 
	C1764.809814,681.570496 1764.809814,656.336548 1764.713135,630.671509 
z"/>
<path fill="#8615B5" opacity="1.000000" stroke="none" 
	d="
M184.848145,646.002197 
	C184.848114,640.197021 184.848114,634.891357 184.848114,631.076599 
	C169.519012,625.506287 154.471146,621.459045 140.703613,614.774719 
	C95.417068,592.787476 68.420845,556.707825 61.386353,506.528778 
	C60.029720,496.851562 60.267635,486.927551 60.106354,477.111877 
	C59.906921,464.974121 60.058636,452.830597 60.058636,440.345276 
	C82.378593,440.345276 104.421425,440.345276 127.001183,440.345276 
	C127.001183,455.988800 126.813484,471.596771 127.088234,487.196625 
	C127.207794,493.985352 127.752861,500.855591 129.001617,507.520752 
	C136.085480,545.330750 163.919662,568.307495 201.177414,572.954224 
	C219.705673,575.264954 238.143723,574.689087 255.899139,568.243591 
	C287.948059,556.609314 304.895996,533.008423 308.952148,499.692505 
	C309.794037,492.777374 309.774811,485.738129 309.848389,478.752869 
	C309.981689,466.095673 309.886169,453.436066 309.886169,440.388489 
	C332.074158,440.388489 354.102112,440.388489 376.315735,440.388489 
	C376.435730,441.051514 376.653198,441.682922 376.648987,442.312836 
	C376.528687,460.301910 377.236084,478.345245 376.087738,496.269531 
	C372.648651,549.949890 346.077972,588.864624 298.758453,613.835327 
	C283.966675,621.641052 268.129913,626.581604 251.243668,629.439575 
	C251.243668,655.231140 251.243668,680.814392 251.243668,706.697388 
	C229.043915,706.697388 207.303467,706.697388 184.848175,706.697388 
	C184.848175,686.653870 184.848175,666.577820 184.848145,646.002197 
z"/>
<path fill="#8615B5" opacity="1.000000" stroke="none" 
	d="
M1095.000244,436.998291 
	C1110.808960,436.998291 1126.117676,436.998291 1141.727295,436.998291 
	C1141.875977,438.174103 1142.097412,439.107208 1142.097046,440.040283 
	C1142.079834,485.031830 1142.796753,530.039795 1141.816528,575.010681 
	C1140.621704,629.834229 1114.658936,670.354370 1066.749268,696.555542 
	C1036.494751,713.101379 1003.640808,717.697571 969.570801,715.446838 
	C936.491577,713.261475 906.274353,702.999817 880.046936,682.575317 
	C845.234680,655.465271 827.339417,619.495544 825.890869,575.374939 
	C825.858887,574.399414 825.886902,573.421936 825.886902,572.070312 
	C848.062927,572.070312 869.952026,572.070312 891.934143,572.070312 
	C892.913452,579.083679 893.472290,586.199402 894.946472,593.120178 
	C902.562988,628.877380 929.947815,653.148560 966.449951,656.988098 
	C986.570007,659.104553 1006.468506,658.677490 1025.415894,650.781982 
	C1056.552002,637.807495 1073.396362,613.381287 1074.607178,580.506470 
	C1076.286743,534.907837 1075.214478,489.207855 1075.319702,443.551239 
	C1075.324219,441.581329 1075.320312,439.611420 1075.320312,436.998291 
	C1081.974731,436.998291 1088.237549,436.998291 1095.000244,436.998291 
z"/>
<path fill="#D176CF" opacity="1.000000" stroke="none" 
	d="
M1303.038330,283.059265 
	C1306.095337,277.382782 1311.490356,273.378693 1312.654419,265.835663 
	C1304.961792,266.608276 1298.041382,266.800476 1291.327515,268.078522 
	C1275.616089,271.069366 1259.915283,274.220459 1244.386963,278.027435 
	C1236.119873,280.054260 1228.149414,283.398529 1220.182129,286.500031 
	C1215.516235,288.316345 1214.974121,290.702911 1216.803223,295.656982 
	C1222.975830,312.376434 1227.343750,329.533997 1226.788208,347.473450 
	C1226.038818,371.677246 1217.667603,393.354187 1203.562378,412.905212 
	C1201.754639,415.410889 1199.893188,417.877808 1197.663330,420.894989 
	C1194.190308,416.406677 1190.945190,412.517487 1188.130859,408.338165 
	C1187.512451,407.419983 1187.936279,405.116547 1188.708130,404.050323 
	C1197.375854,392.076508 1203.880981,378.846222 1206.413818,364.487915 
	C1208.404297,353.203644 1208.532104,341.246918 1207.348633,329.810181 
	C1203.581299,293.403229 1184.154419,263.703369 1164.001221,234.676926 
	C1148.741455,212.698410 1132.362061,191.497910 1116.530151,169.915115 
	C1114.676636,167.388168 1113.227661,164.567505 1111.428345,161.996918 
	C1108.516846,157.837311 1106.488892,157.891373 1103.589966,161.884232 
	C1089.516113,181.269135 1075.581177,200.757874 1061.273560,219.969101 
	C1045.523193,241.117615 1030.693237,262.825745 1019.610291,286.832855 
	C1012.933716,301.295166 1008.447144,316.375336 1006.706482,332.396606 
	C1003.906006,358.173798 1010.528503,381.231079 1024.886475,402.370056 
	C1027.035889,405.534668 1027.842285,407.889587 1024.697998,410.995972 
	C1021.949829,413.711121 1019.905884,417.139069 1016.853577,421.173950 
	C1012.539246,414.915405 1008.606323,409.660889 1005.146667,404.111267 
	C992.021118,383.056610 986.270691,360.037750 988.233521,335.343872 
	C989.323242,321.634644 992.754089,308.297058 997.947571,295.534454 
	C999.762573,291.074219 999.283936,288.602539 994.549988,286.683136 
	C977.198730,279.648102 959.582336,273.584137 940.974365,270.883820 
	C929.048279,269.153107 917.098755,267.582062 905.152527,265.993805 
	C904.222168,265.870148 903.234741,266.175354 901.296448,266.388885 
	C902.314148,268.542786 902.861816,270.373077 903.918518,271.835510 
	C915.620850,288.030304 925.401855,305.276794 931.909424,324.203094 
	C936.849915,338.572083 941.031799,353.201538 945.953064,367.577576 
	C951.819885,384.715942 959.359131,401.151611 971.462158,414.831940 
	C979.634583,424.069275 988.883545,432.354156 997.891785,441.304382 
	C995.341064,443.587402 992.127991,446.839417 988.479248,449.492279 
	C987.430481,450.254791 984.706665,449.890198 983.459106,449.023285 
	C968.408203,438.563843 956.890442,424.862732 947.166626,409.436127 
	C935.751099,391.325653 929.620483,370.956879 921.947693,351.266571 
	C918.614075,342.711853 917.187073,333.426117 914.029358,324.788513 
	C906.702332,304.745911 895.734619,286.726410 881.956848,270.449066 
	C876.709778,264.250244 871.162781,258.305969 865.805603,252.199112 
	C864.893433,251.159271 864.250244,249.883484 863.733032,249.097122 
	C878.400513,249.097122 892.860291,248.436310 907.231018,249.284805 
	C921.326477,250.117020 935.331238,252.484375 949.757141,254.223984 
	C953.760742,224.650238 961.418030,196.557358 971.881897,168.595978 
	C975.595764,169.600388 979.293823,170.326782 982.796997,171.592560 
	C1005.036865,179.628006 1026.665771,189.017426 1046.771729,201.584793 
	C1050.448486,203.882935 1052.913452,203.745773 1055.492065,200.123047 
	C1068.138062,182.356354 1081.149048,164.843750 1093.510254,146.882919 
	C1098.612427,139.469498 1102.410645,131.158737 1107.320923,122.321976 
	C1109.709595,126.746109 1111.496338,130.742188 1113.876831,134.345947 
	C1124.606934,150.589859 1135.415283,166.784012 1146.388062,182.864716 
	C1150.669067,189.138626 1155.617432,194.955460 1159.943848,201.200821 
	C1162.080322,204.284866 1164.100708,204.462570 1166.945923,202.516846 
	C1184.251953,190.681808 1203.411133,182.588470 1222.822998,175.041199 
	C1229.122559,172.591934 1235.559937,170.497391 1242.656738,167.984879 
	C1244.834229,174.474899 1247.332886,180.729782 1249.027344,187.195419 
	C1254.128052,206.657913 1259.174805,226.142502 1263.708862,245.741928 
	C1265.774170,254.669281 1265.156616,254.405716 1274.657471,253.231400 
	C1288.600342,251.508041 1302.597412,250.001129 1316.617065,249.187408 
	C1327.831421,248.536514 1339.113770,249.055954 1350.819946,249.055954 
	C1348.626587,251.753586 1346.463745,254.733810 1343.979492,257.416290 
	C1328.933472,273.662476 1315.537720,291.111023 1306.341919,311.359741 
	C1301.430542,322.174255 1296.144531,333.143433 1293.560669,344.613434 
	C1289.776611,361.412231 1283.440796,377.136230 1276.400269,392.547089 
	C1266.012939,415.283844 1251.179932,434.874878 1230.632812,449.637970 
	C1229.673828,450.327057 1227.373901,450.371613 1226.463989,449.691864 
	C1222.896118,447.026642 1219.635376,443.950348 1215.772217,440.603760 
	C1220.666870,436.620880 1225.246704,432.992767 1229.718994,429.236603 
	C1243.284912,417.842621 1252.518311,403.290497 1260.344604,387.620636 
	C1268.144043,372.004333 1272.755737,355.318085 1277.809692,338.737823 
	C1283.756836,319.226776 1291.574951,300.499084 1303.038330,283.059265 
M1244.900391,237.740128 
	C1241.226807,223.457382 1237.496704,209.188751 1233.917480,194.882385 
	C1232.971558,191.101547 1230.834351,189.743515 1227.430908,191.375122 
	C1210.687500,199.402206 1194.020386,207.588593 1177.309204,215.683411 
	C1174.003906,217.284500 1173.665771,218.990967 1175.748779,222.251572 
	C1185.852295,238.066238 1195.730957,254.026474 1205.514771,270.041656 
	C1207.103149,272.641693 1208.361572,273.513123 1211.428345,272.306396 
	C1222.223633,268.058594 1233.104248,264.017609 1244.035400,260.131683 
	C1247.122192,259.034332 1248.312256,257.587891 1247.630615,254.267044 
	C1246.566895,249.084061 1245.863037,243.827209 1244.900391,237.740128 
M977.419678,206.014908 
	C974.002991,221.720688 970.609314,237.431534 967.152954,253.128586 
	C966.300171,257.001678 967.285156,259.044220 971.464783,260.437897 
	C982.322388,264.058289 992.991150,268.259308 1003.659424,272.422943 
	C1006.294189,273.451233 1007.551331,272.819061 1008.791077,270.454376 
	C1011.801208,264.712830 1014.777344,258.926483 1018.229187,253.449341 
	C1024.878052,242.899063 1031.825684,232.536377 1038.699463,222.129013 
	C1040.099976,220.008499 1041.388306,217.759491 1038.379028,216.269806 
	C1021.267700,207.799210 1004.125122,199.387772 986.874329,191.206818 
	C984.026306,189.856155 981.481567,190.772537 980.779480,194.747864 
	C980.148865,198.319214 978.755798,201.755936 977.419678,206.014908 
z"/>
<path fill="#8714B5" opacity="1.000000" stroke="none" 
	d="
M1352.304443,550.320312 
	C1382.597168,519.796204 1430.573608,529.185852 1445.451782,568.245605 
	C1457.914551,600.964050 1436.779541,636.287659 1401.777100,642.211182 
	C1370.089478,647.573730 1335.819092,622.224670 1338.159180,583.433167 
	C1338.908203,571.018616 1343.825317,560.006042 1352.304443,550.320312 
z"/>
<path fill="#8714B5" opacity="1.000000" stroke="none" 
	d="
M2197.185791,641.981812 
	C2174.302734,636.513062 2159.576416,622.971436 2153.691650,600.423462 
	C2145.651123,569.615479 2167.002930,538.203857 2198.484375,532.825256 
	C2230.549316,527.347107 2264.068115,552.260254 2262.986572,589.953613 
	C2262.250977,615.590332 2241.735596,638.728821 2216.401611,641.913269 
	C2210.232910,642.688599 2203.881836,642.010315 2197.185791,641.981812 
z"/>
<path fill="#DF12BB" opacity="1.000000" stroke="none" 
	d="
M1158.709473,335.472687 
	C1171.964600,369.250488 1151.109985,402.938232 1120.433105,410.288025 
	C1088.961548,417.828247 1057.621094,396.429504 1052.732788,364.393860 
	C1048.391968,335.947113 1068.668823,302.772217 1105.751587,301.187134 
	C1127.573486,300.254333 1148.782837,312.472137 1158.709473,335.472687 
z"/>
<path fill="#8A1FB8" opacity="1.000000" stroke="none" 
	d="
M1585.999023,704.995789 
	C1584.396118,706.115662 1582.631836,706.898438 1580.243530,707.958191 
	C1580.243530,703.198853 1580.243530,699.661865 1580.243530,695.049438 
	C1582.432861,698.809937 1584.135254,701.734375 1585.999023,704.995789 
z"/>
<path fill="#FFFEFF" opacity="1.000000" stroke="none" 
	d="
M1244.953613,238.170898 
	C1245.863037,243.827209 1246.566895,249.084061 1247.630615,254.267044 
	C1248.312256,257.587891 1247.122192,259.034332 1244.035400,260.131683 
	C1233.104248,264.017609 1222.223633,268.058594 1211.428345,272.306396 
	C1208.361572,273.513123 1207.103149,272.641693 1205.514771,270.041656 
	C1195.730957,254.026474 1185.852295,238.066238 1175.748779,222.251572 
	C1173.665771,218.990967 1174.003906,217.284500 1177.309204,215.683411 
	C1194.020386,207.588593 1210.687500,199.402206 1227.430908,191.375122 
	C1230.834351,189.743515 1232.971558,191.101547 1233.917480,194.882385 
	C1237.496704,209.188751 1241.226807,223.457382 1244.953613,238.170898 
z"/>
<path fill="#FFFEFF" opacity="1.000000" stroke="none" 
	d="
M977.559387,205.633484 
	C978.755798,201.755936 980.148865,198.319214 980.779480,194.747864 
	C981.481567,190.772537 984.026306,189.856155 986.874329,191.206818 
	C1004.125122,199.387772 1021.267700,207.799210 1038.379028,216.269806 
	C1041.388306,217.759491 1040.099976,220.008499 1038.699463,222.129013 
	C1031.825684,232.536377 1024.878052,242.899063 1018.229187,253.449341 
	C1014.777344,258.926483 1011.801208,264.712830 1008.791077,270.454376 
	C1007.551331,272.819061 1006.294189,273.451233 1003.659424,272.422943 
	C992.991150,268.259308 982.322388,264.058289 971.464783,260.437897 
	C967.285156,259.044220 966.300171,257.001678 967.152954,253.128586 
	C970.609314,237.431534 974.002991,221.720688 977.559387,205.633484 
z"/>
</svg>